<svg width="75" height="74" viewBox="0 0 75 74" fill="none" xmlns="http://www.w3.org/2000/svg">
<path d="M2.43818 1.48249C4.3908 -0.470127 7.55662 -0.470127 9.50924 1.48249L73.1489 65.1221C75.1015 67.0747 75.1015 70.2405 73.1489 72.1932V72.1932C71.1962 74.1458 68.0304 74.1458 66.0778 72.1932L2.43818 8.55356C0.485555 6.60094 0.485554 3.43512 2.43818 1.48249V1.48249Z" fill="#FF3E3E"/>
<path d="M2.53553 72.2462C0.582912 70.2936 0.582913 67.1278 2.53553 65.1751L66.1751 1.53554C68.1278 -0.417085 71.2936 -0.417086 73.2462 1.53554V1.53554C75.1988 3.48816 75.1988 6.65398 73.2462 8.6066L9.6066 72.2462C7.65398 74.1988 4.48816 74.1988 2.53553 72.2462V72.2462Z" fill="#FF3E3E"/>
</svg>
